<svg width="24" height="25" viewBox="0 0 24 25" fill="none" xmlns="http://www.w3.org/2000/svg">
<path d="M12 9.44215V18.5022M17 9.44215V18.5022M7 9.44215V18.5022M12.447 3.60815L20.211 7.51615C21.155 7.99115 20.819 9.42315 19.764 9.42315H4.236C3.181 9.42315 2.845 7.99115 3.789 7.51615L11.553 3.60815C11.6918 3.53879 11.8448 3.50269 12 3.50269C12.1552 3.50269 12.3082 3.53879 12.447 3.60815ZM19.5 21.5022H4.5C4.10218 21.5022 3.72064 21.3441 3.43934 21.0628C3.15804 20.7815 3 20.4 3 20.0022C3 19.6043 3.15804 19.2228 3.43934 18.9415C3.72064 18.6602 4.10218 18.5022 4.5 18.5022H19.5C19.8978 18.5022 20.2794 18.6602 20.5607 18.9415C20.842 19.2228 21 19.6043 21 20.0022C21 20.4 20.842 20.7815 20.5607 21.0628C20.2794 21.3441 19.8978 21.5022 19.5 21.5022Z" stroke="#434A50" stroke-opacity="0.73" stroke-linecap="round" stroke-linejoin="round"/>
</svg>
