<svg width="32" height="32" viewBox="0 0 32 32" fill="none" xmlns="http://www.w3.org/2000/svg">
<path d="M28.0013 8.03126C28.0053 7.83659 27.992 6.07792 26.268 4.38459C24.5706 2.71792 22.8586 2.66992 22.668 2.66992H9.3293C9.01064 2.66992 7.33864 2.75392 5.71864 4.40592C4.0493 6.10726 4.0013 7.81526 4.0013 8.00326V12.0033H2.66797V16.0033H4.0013V24.0033C4.0013 24.9819 4.54264 25.8339 5.33464 26.2979V28.0033C5.33464 28.3569 5.47511 28.696 5.72516 28.9461C5.97521 29.1961 6.31435 29.3366 6.66797 29.3366H8.0013C8.35492 29.3366 8.69406 29.1961 8.94411 28.9461C9.19416 28.696 9.33464 28.3569 9.33464 28.0033V26.6699H22.668V28.0033C22.668 28.3569 22.8084 28.696 23.0585 28.9461C23.3085 29.1961 23.6477 29.3366 24.0013 29.3366H25.3346C25.6883 29.3366 26.0274 29.1961 26.2774 28.9461C26.5275 28.696 26.668 28.3569 26.668 28.0033V26.3006C27.0725 26.0686 27.4087 25.7341 27.6428 25.3308C27.8769 24.9275 28.0005 24.4696 28.0013 24.0033V16.0033H29.3346V12.0033H28.0013V8.03126ZM12.0013 5.33659H20.0013V8.00326H12.0013V5.33659ZM8.66797 24.0033C8.13736 24.0031 7.62855 23.7921 7.25348 23.4168C6.87841 23.0415 6.66779 22.5325 6.66797 22.0019C6.66815 21.4713 6.8791 20.9625 7.25442 20.5874C7.62975 20.2124 8.13869 20.0017 8.6693 20.0019C9.19991 20.0021 9.70872 20.2131 10.0838 20.5884C10.4589 20.9637 10.6695 21.4726 10.6693 22.0033C10.6691 22.5339 10.4582 23.0427 10.0828 23.4177C9.70753 23.7928 9.19858 24.0034 8.66797 24.0033ZM14.668 17.3366H6.66797V10.6699H14.668V17.3366ZM23.3346 24.0033C22.804 24.0031 22.2952 23.7921 21.9201 23.4168C21.5451 23.0415 21.3345 22.5325 21.3346 22.0019C21.3348 21.4713 21.5458 20.9625 21.9211 20.5874C22.2964 20.2124 22.8054 20.0017 23.336 20.0019C23.8666 20.0021 24.3754 20.2131 24.7505 20.5884C25.1255 20.9637 25.3361 21.4726 25.336 22.0033C25.3358 22.5339 25.1248 23.0427 24.7495 23.4177C24.3742 23.7928 23.8652 24.0034 23.3346 24.0033ZM25.3346 17.3366H17.3346V10.6699H25.3346V17.3366Z" fill="#434A50"/>
</svg>
