<svg width="28" height="21" viewBox="0 0 28 21" fill="none" xmlns="http://www.w3.org/2000/svg">
<path d="M4.04075 16.997C4.04075 17.6653 4.30625 18.3063 4.77884 18.7789C5.25143 19.2515 5.89241 19.517 6.56075 19.517C7.2291 19.517 7.87007 19.2515 8.34266 18.7789C8.81525 18.3063 9.08075 17.6653 9.08075 16.997M4.04075 16.997C4.04075 16.3286 4.30625 15.6876 4.77884 15.215C5.25143 14.7425 5.89241 14.477 6.56075 14.477C7.2291 14.477 7.87007 14.7425 8.34266 15.215C8.81525 15.6876 9.08075 16.3286 9.08075 16.997M4.04075 16.997H1.52075V3.13695C1.52075 2.80278 1.6535 2.48229 1.8898 2.246C2.12609 2.0097 2.44658 1.87695 2.78075 1.87695H20.4208C22.0916 1.87695 23.694 2.8062 24.8755 4.46027C26.057 6.11434 26.7208 8.35774 26.7208 10.697M9.08075 16.997H19.1608M19.1608 16.997C19.1608 17.6653 19.4263 18.3063 19.8988 18.7789C20.3714 19.2515 21.0124 19.517 21.6808 19.517C22.3491 19.517 22.9901 19.2515 23.4627 18.7789C23.9353 18.3063 24.2008 17.6653 24.2008 16.997M19.1608 16.997C19.1608 16.3286 19.4263 15.6876 19.8988 15.215C20.3714 14.7425 21.0124 14.477 21.6808 14.477C22.3491 14.477 22.9901 14.7425 23.4627 15.215C23.9353 15.6876 24.2008 16.3286 24.2008 16.997M24.2008 16.997H26.7208V10.697M26.7208 10.697H21.0508L19.1608 1.87695M1.52075 8.17695H20.4208M7.82075 1.87695V8.17695M14.1208 1.87695V8.17695" stroke="#0D95F6" stroke-width="1.82" stroke-linecap="round" stroke-linejoin="round"/>
</svg>
