<svg width="20" height="20" viewBox="0 0 20 20" fill="none" xmlns="http://www.w3.org/2000/svg">
<path d="M19.9747 0.429064C19.9691 0.41062 19.9651 0.391953 19.9576 0.374175C19.9496 0.354842 19.9384 0.337064 19.9284 0.318842C19.9211 0.305509 19.9151 0.291509 19.9067 0.27862C19.866 0.217509 19.8136 0.165064 19.7524 0.124398C19.7398 0.115953 19.7262 0.110398 19.7131 0.103064C19.6947 0.092842 19.6767 0.0817309 19.6569 0.0735087C19.6393 0.0661754 19.6209 0.0621753 19.6027 0.0566198C19.5862 0.0517309 19.5704 0.0452864 19.5533 0.0419531C19.5176 0.034842 19.4811 0.0310642 19.4447 0.0310642H14.6587C14.3518 0.0310642 14.1031 0.279731 14.1031 0.58662C14.1031 0.893509 14.3518 1.14218 14.6587 1.14218H18.1033L10.0291 9.2164L1.92578 1.11306H5.31222C5.61911 1.11306 5.86778 0.864398 5.86778 0.557509C5.86778 0.25062 5.61911 0.00195312 5.31222 0.00195312H0.584667C0.548222 0.00195312 0.511778 0.00573086 0.476 0.012842C0.458889 0.0163975 0.443111 0.0226197 0.426667 0.0275086C0.408444 0.032842 0.39 0.0370642 0.372444 0.0443976C0.352667 0.0523976 0.334667 0.0635087 0.316222 0.0739531C0.303111 0.0810642 0.289333 0.086842 0.276667 0.0952865C0.215778 0.136175 0.163333 0.18862 0.122444 0.249509C0.113778 0.26262 0.108 0.27662 0.100444 0.290175C0.0904445 0.308175 0.0795556 0.325731 0.0715556 0.345064C0.064 0.363064 0.0597778 0.381953 0.0544444 0.400398C0.0495555 0.41662 0.0433333 0.431953 0.04 0.448842C0.0328889 0.48462 0.0291111 0.521064 0.0291111 0.557509V5.34329C0.0291111 5.65018 0.277778 5.89884 0.584667 5.89884C0.891556 5.89884 1.14022 5.65018 1.14022 5.34329V1.89884L9.24356 10.002L1.11111 18.1344V14.6897C1.11111 14.3828 0.862444 14.1342 0.555556 14.1342C0.248667 14.1342 0 14.3828 0 14.6897V19.4173C0 19.5784 0.0697778 19.7224 0.179333 19.824C0.184 19.8288 0.187111 19.8344 0.191778 19.8393C0.300444 19.9477 0.442444 20.002 0.584667 20.002C0.642222 20.002 0.699111 19.9906 0.754445 19.9728H5.34133C5.64822 19.9728 5.89689 19.7242 5.89689 19.4173C5.89689 19.1104 5.64822 18.8617 5.34133 18.8617H1.95489L10.0291 10.7875L18.1324 18.8908H14.6878C14.3809 18.8908 14.1322 19.1395 14.1322 19.4464C14.1322 19.7533 14.3809 20.002 14.6878 20.002H19.4153C19.5764 20.002 19.7204 19.9322 19.822 19.8226C19.8269 19.818 19.8324 19.8148 19.8373 19.8102C19.9898 19.6577 20.0327 19.4395 19.9711 19.2475V14.6608C19.9711 14.354 19.7224 14.1053 19.4156 14.1053C19.1087 14.1053 18.86 14.354 18.86 14.6608V18.0473L10.8147 10.002L18.8889 1.92773V5.31418C18.8889 5.62106 19.1376 5.86973 19.4444 5.86973C19.7513 5.86973 20 5.62106 20 5.31418V0.58662C20 0.550175 19.9962 0.513731 19.9891 0.477953C19.9858 0.461064 19.9793 0.445286 19.9747 0.429064Z" fill="white"/>
</svg>
