<svg width="369" height="348" viewBox="0 0 369 348" fill="none" xmlns="http://www.w3.org/2000/svg">
<path d="M338.174 91.6188C318.637 56.4355 281.556 32.057 241.636 22.8205C203.525 14.0143 157.643 14.4445 128.959 43.4586C110.069 62.5631 102.488 89.1622 85.8334 109.793C77.5465 120.05 67.1788 124.741 56.3184 131.917C29.8623 149.411 10.399 177.565 14.6416 209.403C21.774 262.636 73.2303 291.227 124.937 294.44C193.275 298.68 242.011 290.061 283.408 265.093C304.916 252.123 326.357 236.731 339.482 215.434C359.336 183.227 358.519 142.603 345.681 108.024C343.6 102.392 341.091 96.9097 338.174 91.6188Z" fill="#D91B5C" fill-opacity="0.37"/>
<path d="M181.632 325.457H174.61V37.1485C174.61 36.2706 174.979 35.4287 175.637 34.8079C176.295 34.1871 177.187 33.8384 178.117 33.8384C178.578 33.8375 179.035 33.9224 179.462 34.0884C179.888 34.2543 180.276 34.498 180.602 34.8054C180.929 35.1129 181.188 35.4781 181.364 35.8802C181.541 36.2822 181.632 36.7133 181.632 37.1485V325.457Z" fill="#92E3A9" stroke="#263238" stroke-width="0.8989" stroke-linecap="round" stroke-linejoin="round"/>
<path d="M174.411 72.2427H112.874V92.6934H174.411V72.2427Z" fill="#263238" stroke="#263238" stroke-width="0.8989" stroke-linecap="round" stroke-linejoin="round"/>
<path d="M243.288 50.3188H181.75V70.7696H243.288V50.3188Z" fill="#263238" stroke="#263238" stroke-width="0.8989" stroke-linecap="round" stroke-linejoin="round"/>
<path d="M181.747 106.674L216.108 110.796V82.1016L181.747 86.2236V106.674Z" fill="#263238" stroke="#263238" stroke-width="0.8989" stroke-linecap="round" stroke-linejoin="round"/>
<path d="M209.182 96.9952L201.601 89.105V92.547L185.763 93.1368V100.632L201.601 101.374V104.816L209.182 96.9952Z" fill="#92E3A9" stroke="#263238" stroke-width="0.8989" stroke-linecap="round" stroke-linejoin="round"/>
<path d="M233.904 59.0536L222.212 52.6831V55.4728H191.381V62.6344H222.212V65.431L233.904 59.0536Z" fill="#92E3A9" stroke="#263238" stroke-width="0.8989" stroke-linecap="round" stroke-linejoin="round"/>
<path d="M122.745 82.6161L134.436 76.2456V79.0353H165.267V86.1969H134.436V88.9865L122.745 82.6161Z" fill="#92E3A9" stroke="#263238" stroke-width="0.8989" stroke-linecap="round" stroke-linejoin="round"/>
<path d="M273.718 92.7608C287.802 92.7608 299.219 81.986 299.219 68.6946C299.219 55.4032 287.802 44.6284 273.718 44.6284C259.635 44.6284 248.218 55.4032 248.218 68.6946C248.218 81.986 259.635 92.7608 273.718 92.7608Z" stroke="#263238" stroke-width="0.8989" stroke-linecap="round" stroke-linejoin="round"/>
<path d="M290.491 84.5879C288.78 86.1928 286.821 87.545 284.683 88.5989" stroke="#263238" stroke-width="0.8989" stroke-linecap="round" stroke-linejoin="round"/>
<path d="M281.285 89.963C275.998 91.6416 270.253 91.5124 265.057 89.5981C259.86 87.6837 255.542 84.1061 252.858 79.491C250.174 74.8758 249.294 69.5169 250.373 64.3516C251.452 59.1862 254.42 54.5433 258.76 51.2347C263.099 47.9262 268.533 46.1628 274.11 46.2528C279.688 46.3428 285.054 48.2807 289.271 51.7273C293.488 55.174 296.287 59.91 297.178 65.1072C298.069 70.3043 296.995 75.6317 294.145 80.1575" stroke="#263238" stroke-width="0.8989" stroke-linecap="round" stroke-linejoin="round"/>
<path d="M273.715 70.4681C274.755 70.4681 275.598 69.6727 275.598 68.6916C275.598 67.7104 274.755 66.915 273.715 66.915C272.676 66.915 271.833 67.7104 271.833 68.6916C271.833 69.6727 272.676 70.4681 273.715 70.4681Z" fill="#263238" stroke="#263238" stroke-width="0.8989" stroke-linecap="round" stroke-linejoin="round"/>
<path d="M276.423 78.6679L273.717 68.6958L289.511 58.4878" stroke="#263238" stroke-width="0.8989" stroke-linecap="round" stroke-linejoin="round"/>
<path d="M106.15 131.136V166.687H78.0913" stroke="#263238" stroke-width="0.8989" stroke-linecap="round" stroke-linejoin="round"/>
<path d="M55.0693 161.107V121.434H106.151V127.999" stroke="#263238" stroke-width="0.8989" stroke-linecap="round" stroke-linejoin="round"/>
<path d="M74.0616 166.685H55.0688V163.792" stroke="#263238" stroke-width="0.8989" stroke-linecap="round" stroke-linejoin="round"/>
<path d="M63.1636 132.571H58.1782V137.276H63.1636V132.571Z" stroke="#263238" stroke-width="0.8989" stroke-linecap="round" stroke-linejoin="round"/>
<path d="M69.8125 132.571H64.8271V137.276H69.8125V132.571Z" stroke="#263238" stroke-width="0.8989" stroke-linecap="round" stroke-linejoin="round"/>
<path d="M76.4604 132.571H71.4751V137.276H76.4604V132.571Z" stroke="#263238" stroke-width="0.8989" stroke-linecap="round" stroke-linejoin="round"/>
<path d="M83.1054 132.571H78.1201V137.276H83.1054V132.571Z" stroke="#263238" stroke-width="0.8989" stroke-linecap="round" stroke-linejoin="round"/>
<path d="M89.7524 132.571H84.7671V137.276H89.7524V132.571Z" stroke="#263238" stroke-width="0.8989" stroke-linecap="round" stroke-linejoin="round"/>
<path d="M96.4004 132.571H91.415V137.276H96.4004V132.571Z" stroke="#263238" stroke-width="0.8989" stroke-linecap="round" stroke-linejoin="round"/>
<path d="M103.046 132.571H98.0605V137.276H103.046V132.571Z" stroke="#263238" stroke-width="0.8989" stroke-linecap="round" stroke-linejoin="round"/>
<path d="M63.1636 139.995H58.1782V144.7H63.1636V139.995Z" stroke="#263238" stroke-width="0.8989" stroke-linecap="round" stroke-linejoin="round"/>
<path d="M69.8125 139.995H64.8271V144.7H69.8125V139.995Z" stroke="#263238" stroke-width="0.8989" stroke-linecap="round" stroke-linejoin="round"/>
<path d="M76.4595 139.995H71.4741V144.7H76.4595V139.995Z" stroke="#263238" stroke-width="0.8989" stroke-linecap="round" stroke-linejoin="round"/>
<path d="M83.1064 139.995H78.1211V144.7H83.1064V139.995Z" stroke="#263238" stroke-width="0.8989" stroke-linecap="round" stroke-linejoin="round"/>
<path d="M89.7534 139.995H84.7681V144.7H89.7534V139.995Z" stroke="#263238" stroke-width="0.8989" stroke-linecap="round" stroke-linejoin="round"/>
<path d="M96.4004 139.995H91.415V144.7H96.4004V139.995Z" stroke="#263238" stroke-width="0.8989" stroke-linecap="round" stroke-linejoin="round"/>
<path d="M103.045 139.995H98.0596V144.7H103.045V139.995Z" stroke="#263238" stroke-width="0.8989" stroke-linecap="round" stroke-linejoin="round"/>
<path d="M63.1636 147.424H58.1782V152.129H63.1636V147.424Z" stroke="#263238" stroke-width="0.8989" stroke-linecap="round" stroke-linejoin="round"/>
<path d="M69.8125 147.424H64.8271V152.129H69.8125V147.424Z" stroke="#263238" stroke-width="0.8989" stroke-linecap="round" stroke-linejoin="round"/>
<path d="M76.4595 147.426H71.4741V152.131H76.4595V147.426Z" stroke="#263238" stroke-width="0.8989" stroke-linecap="round" stroke-linejoin="round"/>
<path d="M83.1064 147.426H78.1211V152.131H83.1064V147.426Z" stroke="#263238" stroke-width="0.8989" stroke-linecap="round" stroke-linejoin="round"/>
<path d="M89.7524 147.424H84.7671V152.129H89.7524V147.424Z" stroke="#263238" stroke-width="0.8989" stroke-linecap="round" stroke-linejoin="round"/>
<path d="M96.4004 147.424H91.415V152.129H96.4004V147.424Z" stroke="#263238" stroke-width="0.8989" stroke-linecap="round" stroke-linejoin="round"/>
<path d="M103.045 147.426H98.0596V152.131H103.045V147.426Z" stroke="#263238" stroke-width="0.8989" stroke-linecap="round" stroke-linejoin="round"/>
<path d="M63.1636 154.85H58.1782V159.555H63.1636V154.85Z" stroke="#263238" stroke-width="0.8989" stroke-linecap="round" stroke-linejoin="round"/>
<path d="M69.8125 154.848H64.8271V159.553H69.8125V154.848Z" stroke="#263238" stroke-width="0.8989" stroke-linecap="round" stroke-linejoin="round"/>
<path d="M76.4604 154.848H71.4751V159.553H76.4604V154.848Z" stroke="#263238" stroke-width="0.8989" stroke-linecap="round" stroke-linejoin="round"/>
<path d="M83.1054 154.849H78.1201V159.554H83.1054V154.849Z" stroke="#263238" stroke-width="0.8989" stroke-linecap="round" stroke-linejoin="round"/>
<path d="M89.7524 154.849H84.7671V159.554H89.7524V154.849Z" stroke="#263238" stroke-width="0.8989" stroke-linecap="round" stroke-linejoin="round"/>
<path d="M96.4004 154.848H91.415V159.553H96.4004V154.848Z" stroke="#263238" stroke-width="0.8989" stroke-linecap="round" stroke-linejoin="round"/>
<path d="M103.046 154.85H98.0605V159.555H103.046V154.85Z" stroke="#263238" stroke-width="0.8989" stroke-linecap="round" stroke-linejoin="round"/>
<path d="M64.1058 124.632H61.8999V116.999H64.1058V124.632ZM72.9294 116.999H70.7235V124.632H72.9294V116.999ZM81.753 116.999H79.5471V124.632H81.753V116.999ZM90.5766 116.999H88.3707V124.632H90.5766V116.999ZM99.4002 116.999H97.1943V124.632H99.4002V116.999Z" fill="#263238" stroke="#263238" stroke-width="0.8989" stroke-linecap="round" stroke-linejoin="round"/>
<path d="M80.6154 197.109C76.7612 197.108 72.9932 198.185 69.7878 200.205C66.5825 202.225 64.0839 205.096 62.6079 208.456C61.132 211.816 60.7451 215.514 61.4961 219.082C62.2471 222.65 64.1023 225.927 66.8271 228.5C69.5519 231.072 73.0239 232.824 76.8039 233.534C80.5839 234.245 84.5021 233.881 88.0631 232.489C91.624 231.097 94.6677 228.74 96.8091 225.716C98.9505 222.692 100.093 219.136 100.093 215.499C100.094 213.084 99.5913 210.693 98.6129 208.462C97.6345 206.231 96.1999 204.203 94.3911 202.496C92.5823 200.788 90.4347 199.433 88.071 198.509C85.7073 197.585 83.1739 197.109 80.6154 197.109ZM80.6154 227.129C78.1759 227.131 75.7908 226.449 73.7619 225.171C71.7329 223.893 70.1513 222.075 69.2171 219.948C68.2829 217.822 68.0381 215.481 68.5136 213.223C68.9892 210.965 70.1637 208.891 71.8887 207.263C73.6137 205.635 75.8115 204.526 78.2042 204.077C80.5968 203.629 83.0768 203.86 85.3303 204.741C87.5838 205.623 89.5095 207.116 90.8639 209.03C92.2183 210.945 92.9405 213.196 92.939 215.499C92.9371 218.583 91.638 221.54 89.3273 223.721C87.0166 225.901 83.8832 227.127 80.6154 227.129Z" stroke="#263238" stroke-width="0.8989" stroke-linecap="round" stroke-linejoin="round"/>
<path d="M81.0117 197.119V203.885C83.4076 203.955 85.7297 204.683 87.6931 205.981C89.6565 207.278 91.1758 209.089 92.0644 211.19C92.953 213.291 93.1723 215.591 92.6953 217.808C92.2183 220.025 91.0659 222.062 89.3794 223.67L95.0045 227.889C97.5263 225.281 99.1989 222.043 99.8223 218.561C100.446 215.08 99.9937 211.503 98.5202 208.257C97.0467 205.012 94.6141 202.236 91.5131 200.261C88.4121 198.285 84.7741 197.195 81.0338 197.119H81.0117Z" stroke="#263238" stroke-width="0.8989" stroke-linecap="round" stroke-linejoin="round"/>
<path d="M73.4512 214.742H87.3704" stroke="#263238" stroke-width="0.8989" stroke-linecap="round" stroke-linejoin="round"/>
<path d="M73.4512 218.123H87.3704" stroke="#263238" stroke-width="0.8989" stroke-linecap="round" stroke-linejoin="round"/>
<path d="M257.341 132.96H295.246" stroke="#263238" stroke-width="0.8989" stroke-linecap="round" stroke-linejoin="round"/>
<path d="M242.238 132.961H246.135" stroke="#263238" stroke-width="0.8989" stroke-linecap="round" stroke-linejoin="round"/>
<path d="M269.968 138.638H295.247" stroke="#263238" stroke-width="0.8989" stroke-linecap="round" stroke-linejoin="round"/>
<path d="M242.239 138.638H246.445" stroke="#263238" stroke-width="0.8989" stroke-linecap="round" stroke-linejoin="round"/>
<path d="M282.121 144.313H295.246" stroke="#263238" stroke-width="0.8989" stroke-linecap="round" stroke-linejoin="round"/>
<path d="M242.239 144.313H246.136" stroke="#263238" stroke-width="0.8989" stroke-linecap="round" stroke-linejoin="round"/>
<path d="M292.9 149.985H295.246" stroke="#263238" stroke-width="0.8989" stroke-linecap="round" stroke-linejoin="round"/>
<path d="M242.238 149.985H246.135" stroke="#263238" stroke-width="0.8989" stroke-linecap="round" stroke-linejoin="round"/>
<path d="M292.9 156.59H295.246" stroke="#263238" stroke-width="0.8989" stroke-linecap="round" stroke-linejoin="round"/>
<path d="M242.239 156.589H246.136" stroke="#263238" stroke-width="0.8989" stroke-linecap="round" stroke-linejoin="round"/>
<path d="M292.9 163.195H295.246" stroke="#263238" stroke-width="0.8989" stroke-linecap="round" stroke-linejoin="round"/>
<path d="M242.239 163.195H246.136" stroke="#263238" stroke-width="0.8989" stroke-linecap="round" stroke-linejoin="round"/>
<path d="M255.925 129.034H247.138V163.801H255.925V129.034Z" stroke="#263238" stroke-width="0.8989" stroke-linecap="round" stroke-linejoin="round"/>
<path d="M267.945 135.578H259.158V163.801H267.945V135.578Z" stroke="#263238" stroke-width="0.8989" stroke-linecap="round" stroke-linejoin="round"/>
<path d="M279.976 141.691H271.189V163.8H279.976V141.691Z" stroke="#263238" stroke-width="0.8989" stroke-linecap="round" stroke-linejoin="round"/>
<path d="M292.003 149.551H283.216V163.805H292.003V149.551Z" stroke="#263238" stroke-width="0.8989" stroke-linecap="round" stroke-linejoin="round"/>
<path d="M93.5093 51.0455C89.043 47.8943 83.4612 46.4901 77.9255 47.125C72.3899 47.7599 67.327 50.3851 63.7905 54.4541C60.254 58.5232 58.5164 63.7226 58.9394 68.9702C59.3624 74.2179 61.9134 79.1094 66.0614 82.6267C70.2094 86.144 75.6349 88.0162 81.2086 87.8535C86.7823 87.6908 92.0748 85.5058 95.9846 81.7532C99.8944 78.0007 102.12 72.9697 102.199 67.7075C102.277 62.4452 100.203 57.3571 96.4064 53.5021" stroke="#263238" stroke-width="0.8989" stroke-linecap="round" stroke-linejoin="round"/>
<path d="M70.4433 76.7242C72.9855 79.1856 76.4344 80.6286 80.0742 80.7536C83.7139 80.8787 87.2648 79.6762 89.99 77.3958C92.7152 75.1154 94.4053 71.9321 94.7094 68.5068C95.0136 65.0815 93.9085 61.6772 91.6235 59.0005C89.3385 56.3238 86.0491 54.5803 82.4381 54.1319C78.8271 53.6835 75.1718 54.5646 72.231 56.5923C69.2901 58.6201 67.2895 61.6387 66.6445 65.0217C65.9994 68.4047 66.7594 71.8922 68.7668 74.7603" stroke="#263238" stroke-width="0.8989" stroke-linecap="round" stroke-linejoin="round"/>
<path d="M80.6115 74.3775C84.7009 74.3775 88.016 71.2489 88.016 67.3894C88.016 63.53 84.7009 60.4014 80.6115 60.4014C76.5221 60.4014 73.207 63.53 73.207 67.3894C73.207 71.2489 76.5221 74.3775 80.6115 74.3775Z" stroke="#263238" stroke-width="0.8989" stroke-linecap="round" stroke-linejoin="round"/>
<path d="M268.977 206.358C271.352 206.677 272.44 208.439 272.44 210.896V211.403H270.403V210.764C270.403 209.133 269.705 208.127 268.139 208.127C266.572 208.127 265.896 209.133 265.896 210.764C265.896 214.928 272.47 214.928 272.47 220.139C272.47 222.617 271.352 224.386 268.977 224.706V226.093H267.183V224.706C264.749 224.386 263.661 222.624 263.661 220.139V219.001H265.705V220.271C265.705 221.93 266.44 222.88 267.999 222.88C269.558 222.88 270.286 221.93 270.286 220.271C270.286 216.149 263.742 216.108 263.742 210.896C263.742 208.363 264.837 206.732 267.183 206.358V204.879H268.977V206.358Z" fill="#263238"/>
<path d="M275.218 231.122C276.596 230.561 277.893 229.839 279.079 228.971" stroke="#263238" stroke-width="0.8989" stroke-linecap="round" stroke-linejoin="round"/>
<path d="M261.701 199.565C257.437 201.069 253.933 204.038 251.891 207.877C249.849 211.716 249.42 216.141 250.689 220.266C251.959 224.392 254.833 227.912 258.736 230.121C262.64 232.331 267.284 233.066 271.737 232.181" stroke="#263238" stroke-width="0.8989" stroke-linecap="round" stroke-linejoin="round"/>
<path d="M281.347 227.006C283.968 224.304 285.596 220.878 285.99 217.234C286.384 213.59 285.523 209.924 283.534 206.779C281.546 203.633 278.536 201.177 274.951 199.774C271.366 198.371 267.397 198.097 263.634 198.991" stroke="#263238" stroke-width="0.8989" stroke-linecap="round" stroke-linejoin="round"/>
<path d="M278.108 225.724C284.099 220.486 284.457 211.657 278.907 206.002C273.358 200.348 264.002 200.011 258.011 205.248C252.02 210.486 251.662 219.316 257.212 224.97C262.762 230.624 272.117 230.962 278.108 225.724Z" stroke="#263238" stroke-width="0.8989" stroke-linecap="round" stroke-linejoin="round"/>
<path d="M196.263 153.882L196.785 153.827C198.991 153.57 207.638 152.474 212.587 150.628C218.293 148.497 231.3 149.622 231.3 149.622L237.006 153.508L230.506 157.519C230.506 157.519 221.344 154.632 214.976 154.882C208.609 155.132 205.557 156.887 201.572 156.637C197.587 156.388 192.682 153.862 192.682 153.862L196.263 153.882Z" fill="#263238" stroke="#263238" stroke-width="0.8989" stroke-linecap="round" stroke-linejoin="round"/>
<path d="M171.857 141.698V149.754H185.931V140.428L171.857 141.698Z" fill="white" stroke="#263238" stroke-width="0.8989" stroke-linecap="round" stroke-linejoin="round"/>
<path d="M168.013 133.876C168.013 133.876 164.682 131.794 165.807 135.445C166.932 139.095 168.013 140.517 169.697 140.344C171.38 140.17 172.292 139.65 171.733 138.262C171.174 136.874 168.013 133.876 168.013 133.876Z" fill="white" stroke="#263238" stroke-width="0.8989" stroke-linecap="round" stroke-linejoin="round"/>
<path d="M190.283 133.876C190.283 133.876 193.614 131.794 192.489 135.445C191.363 139.095 190.283 140.517 188.599 140.344C186.915 140.17 186.011 139.65 186.562 138.262C187.113 136.874 190.283 133.876 190.283 133.876Z" fill="white" stroke="#263238" stroke-width="0.8989" stroke-linecap="round" stroke-linejoin="round"/>
<path d="M175.238 117.096C175.238 117.096 169.68 118.838 167.827 123.738C165.974 128.637 167.643 134.57 168.562 137.02C169.481 139.469 173.937 144.188 173.937 144.188H183.937C186.311 141.96 188.254 139.358 189.68 136.499C191.716 132.127 191.716 126.007 191.716 126.007C191.716 126.007 193.378 126.534 193.378 124.432C193.378 122.329 188.231 118.318 188.231 118.318C188.231 118.318 190.643 117.443 188.966 116.236C187.29 115.028 181.371 115.542 181.371 115.542C181.371 115.542 180.606 111.857 175.238 117.096Z" fill="#263238" stroke="#263238" stroke-width="0.8989" stroke-linecap="round" stroke-linejoin="round"/>
<path d="M197.152 317.92L198.674 318.816C199.643 318.822 200.581 319.138 201.336 319.711C202.284 320.613 201.931 325.068 201.931 325.068C201.931 325.068 201.196 325.596 197.556 325.596C193.917 325.596 185.968 326.428 185.233 325.172C184.497 323.916 185.365 318.635 185.365 318.635L197.152 317.92Z" fill="#858585" stroke="#263238" stroke-width="0.8989" stroke-linecap="round" stroke-linejoin="round"/>
<path d="M155.502 205.033C155.502 205.033 154.348 212.93 154.348 214.561C154.348 216.192 153.965 230.175 153.965 230.175C153.965 230.175 154.157 266.954 154.157 267.648C154.157 268.342 150.921 278.418 152.068 285.24C153.215 292.061 155.487 318.258 155.487 318.258C155.487 318.258 154.752 324.004 155.296 324.538C155.84 325.072 162.907 325.794 164.429 325.079C165.951 324.365 164.995 317.363 164.995 317.363C165.523 315.668 165.844 313.922 165.951 312.158V306.412C165.951 304.622 166.899 288.647 167.848 282.367C168.796 276.086 169.37 267.648 169.37 267.648L173.363 228.884L176.407 228.704C176.407 228.704 180.208 270.341 180.399 273.394C180.591 276.447 179.841 282.568 181.554 289.556C183.267 296.544 184.216 315.579 184.216 315.579C184.216 315.579 183.833 317.377 184.216 318.091C184.598 318.806 185.547 320.964 185.547 320.964C186.875 321.079 188.211 321.079 189.539 320.964C191.675 320.866 193.762 320.331 195.657 319.396C196.34 318.875 196.829 318.162 197.051 317.36C197.273 316.558 197.218 315.711 196.892 314.941C195.753 312.311 195.245 311.811 195.245 311.811C195.245 311.811 196.958 289.202 196.958 283.637C196.958 278.071 196.01 271.257 196.01 270.715C196.01 270.174 197.15 229.772 197.15 225.671C197.15 221.57 196.767 210.404 194.863 205.546C192.958 200.689 162.51 201.959 159.495 202.139C158.606 202.21 157.757 202.521 157.049 203.034C156.341 203.547 155.804 204.24 155.502 205.033Z" fill="#263238" stroke="#263238" stroke-width="0.8989" stroke-linecap="round" stroke-linejoin="round"/>
<path d="M166.725 228.629L183.078 227.915" stroke="#757575" stroke-width="0.8989" stroke-linecap="round" stroke-linejoin="round"/>
<path d="M176.23 149.399L165.935 151.731C165.935 151.731 151.097 158.553 147.869 160.343C144.641 162.133 131.891 186.366 132.465 187.622C133.038 188.878 135.509 190.495 137.979 190.856C140.45 191.217 153.031 177.782 153.031 177.782C153.031 177.782 156.641 194.652 156.641 195.367C156.641 196.081 154.553 204.7 155.502 206.137C156.45 207.573 192.965 206.137 192.965 206.137C192.965 206.137 195.627 206.317 196.009 203.986C196.392 201.654 195.274 194.832 195.274 194.832L199.458 174.194C199.458 174.194 207.45 185.631 209.245 187.47C212.355 190.669 216.223 189.329 218.281 186.935C220.083 184.853 218.473 180.828 217.906 179.572C217.34 178.316 207.223 156.963 204.186 156.041C201.149 155.118 188.399 150.836 188.399 150.836L176.23 149.399Z" fill="white" stroke="#263238" stroke-width="0.8989" stroke-linecap="round" stroke-linejoin="round"/>
<path d="M165.969 151.73C165.969 151.73 178.535 151.487 180.623 151.487C182.712 151.487 190.381 151.411 190.381 151.411L188.447 147.524C185.151 146.762 181.766 146.399 178.373 146.442C174.739 146.435 171.133 147.044 167.726 148.239L165.969 151.73Z" fill="white" stroke="#263238" stroke-width="0.8989" stroke-linecap="round" stroke-linejoin="round"/>
<path d="M149.163 168.29L153.03 177.755L146.376 171.475" stroke="#263238" stroke-width="0.8989" stroke-linecap="round" stroke-linejoin="round"/>
<path d="M147.899 165.188L148.355 166.32" stroke="#263238" stroke-width="0.8989" stroke-linecap="round" stroke-linejoin="round"/>
<path d="M169.297 193.78C168.663 194.283 167.995 194.747 167.297 195.168" stroke="#263238" stroke-width="0.8989" stroke-linecap="round" stroke-linejoin="round"/>
<path d="M186.703 166.624C186.703 166.624 179.754 184.562 170.445 192.834" stroke="#263238" stroke-width="0.8989" stroke-linecap="round" stroke-linejoin="round"/>
<path d="M203.804 163.934L199.429 174.169L206.466 166.987" stroke="#263238" stroke-width="0.8989" stroke-linecap="round" stroke-linejoin="round"/>
<path d="M130.823 192.111C131.906 194.947 133.818 197.434 136.338 199.287C140.521 202.34 151.779 212.389 151.779 212.389C151.663 212.922 151.663 213.472 151.779 214.005C151.97 214.901 155.014 217.232 155.014 217.232V215.442L155.749 214.005L156.485 212.208C157.333 211.898 158.161 211.539 158.963 211.132C159.33 210.887 159.651 210.584 159.911 210.237C161.041 210.429 162.183 210.548 163.33 210.591C164.661 210.591 166.566 209.335 165.426 208.981C164.286 208.627 163.147 208.981 161.624 208.287C160.102 207.593 159.338 206.851 157.816 206.851H153.823L143.323 190.675L130.823 192.111Z" fill="white" stroke="#263238" stroke-width="0.8989" stroke-linecap="round" stroke-linejoin="round"/>
<path d="M135.283 181.078C135.283 181.078 133.077 181.703 132.496 182.237C131.915 182.771 129.069 186.907 129.643 189.059C130.216 191.21 130.974 194.263 135.915 195.158C140.856 196.054 143.525 194.083 143.908 193.548C144.29 193.014 145.224 186.657 144.459 186.657C143.694 186.657 141.621 189.059 141.621 189.059C141.621 189.059 135.959 187.851 134.819 186.977C133.68 186.102 135.283 181.078 135.283 181.078Z" fill="white" stroke="#263238" stroke-width="0.8989" stroke-linecap="round" stroke-linejoin="round"/>
<path d="M222.527 192.113C221.443 194.948 219.531 197.436 217.012 199.288C212.828 202.342 201.57 212.39 201.57 212.39C201.686 212.923 201.686 213.474 201.57 214.007C201.379 214.902 197.195 217.664 197.195 217.664V215.048L196.901 213.396L196.82 212.21C195.972 211.899 195.144 211.54 194.342 211.134C193.975 210.888 193.654 210.585 193.394 210.239C192.264 210.431 191.122 210.549 189.975 210.593C188.644 210.593 186.739 209.337 187.879 208.983C189.019 208.629 190.159 208.983 191.681 208.289C193.203 207.595 193.967 206.852 195.49 206.852H199.482L209.938 190.704L222.527 192.113Z" fill="white" stroke="#263238" stroke-width="0.8989" stroke-linecap="round" stroke-linejoin="round"/>
<path d="M218.822 181.948C218.822 181.948 220.248 181.692 220.815 182.226C221.381 182.76 224.241 186.896 223.668 189.048C223.094 191.199 222.337 194.252 217.395 195.147C212.454 196.043 209.785 194.072 209.403 193.537C209.02 193.003 208.719 186.889 209.219 187.431C209.925 188.114 210.764 188.663 211.69 189.048C211.69 189.048 217.572 188.763 218.506 185.619C218.762 184.411 218.868 183.179 218.822 181.948Z" fill="white" stroke="#263238" stroke-width="0.8989" stroke-linecap="round" stroke-linejoin="round"/>
<path d="M164.442 325.093C165.64 324.524 165.302 320.048 165.104 318.188C163.752 318.787 162.307 319.178 160.824 319.347C158.971 319.587 157.087 319.206 155.501 318.271C155.501 318.271 154.89 324.482 155.405 325.065C155.92 325.648 162.92 325.808 164.442 325.093Z" fill="#858585" stroke="#263238" stroke-width="0.8989" stroke-linecap="round" stroke-linejoin="round"/>
<path d="M295.529 325.829C295.451 325.829 295.377 325.799 295.321 325.747C295.266 325.695 295.235 325.625 295.235 325.551V289.757C295.235 289.683 295.266 289.613 295.321 289.561C295.377 289.509 295.451 289.479 295.529 289.479C295.607 289.479 295.682 289.509 295.737 289.561C295.793 289.613 295.824 289.683 295.824 289.757V325.551C295.824 325.625 295.793 325.695 295.737 325.747C295.682 325.799 295.607 325.829 295.529 325.829Z" fill="#263238"/>
<path d="M295.231 322.322C294.002 320.708 292.451 319.336 290.665 318.283C288.099 316.937 283.827 316.937 283.827 316.937C283.827 316.937 286.106 324.744 295.231 322.322Z" fill="#263238"/>
<path d="M295.527 322.324C296.755 320.711 298.303 319.34 300.086 318.285C302.652 316.938 306.931 316.938 306.931 316.938C306.931 316.938 304.645 324.745 295.527 322.324Z" fill="#263238"/>
<path d="M295.23 312.636C294.001 311.022 292.45 309.65 290.663 308.597C288.097 307.251 283.825 307.251 283.825 307.251C283.825 307.251 286.105 315.058 295.23 312.636Z" fill="#263238"/>
<path d="M295.527 312.636C296.755 311.024 298.303 309.652 300.086 308.597C302.652 307.251 306.931 307.251 306.931 307.251C306.931 307.251 304.645 315.058 295.527 312.636Z" fill="#263238"/>
<path d="M295.231 302.941C294.003 301.329 292.451 299.959 290.665 298.909C288.099 297.563 283.827 297.563 283.827 297.563C283.827 297.563 286.106 305.363 295.231 302.941Z" fill="#263238"/>
<path d="M295.527 302.943C296.754 301.332 298.303 299.962 300.086 298.911C302.652 297.564 306.931 297.564 306.931 297.564C306.931 297.564 304.645 305.364 295.527 302.943Z" fill="#263238"/>
<path d="M295.23 293.256C294.001 291.642 292.45 290.27 290.663 289.217C288.097 287.871 283.825 287.871 283.825 287.871C283.825 287.871 286.105 295.678 295.23 293.256Z" fill="#263238"/>
<path d="M295.525 293.256C296.753 291.643 298.301 290.272 300.084 289.217C302.65 287.871 306.929 287.871 306.929 287.871C306.929 287.871 304.643 295.678 295.525 293.256Z" fill="#263238"/>
<path d="M295.529 289.757C295.529 289.757 293.242 286.856 293.132 284.087C293.021 281.318 294.94 277.717 294.94 277.717C294.94 277.717 301.926 283.164 295.529 289.757Z" fill="#263238"/>
<path d="M44.1931 325.828C44.1093 325.828 44.0289 325.796 43.9696 325.74C43.9103 325.684 43.877 325.608 43.877 325.529V286.835C43.877 286.755 43.9103 286.679 43.9696 286.624C44.0289 286.568 44.1093 286.536 44.1931 286.536C44.277 286.536 44.3574 286.568 44.4167 286.624C44.476 286.679 44.5093 286.755 44.5093 286.835V325.529C44.5093 325.608 44.476 325.684 44.4167 325.74C44.3574 325.796 44.277 325.828 44.1931 325.828Z" fill="#263238"/>
<path d="M43.8847 322.039C42.5552 320.296 40.8795 318.813 38.9508 317.674C36.1787 316.216 31.5537 316.216 31.5537 316.216C31.5537 316.216 34.017 324.655 43.8847 322.039Z" fill="#263238"/>
<path d="M44.1953 322.039C45.5249 320.296 47.2005 318.813 49.1292 317.674C51.9013 316.216 56.5263 316.216 56.5263 316.216C56.5263 316.216 54.0557 324.655 44.1953 322.039Z" fill="#263238"/>
<path d="M43.8847 311.564C42.5573 309.82 40.8812 308.337 38.9508 307.199C36.1787 305.742 31.5537 305.742 31.5537 305.742C31.5537 305.742 34.017 314.181 43.8847 311.564Z" fill="#263238"/>
<path d="M44.1963 311.565C45.5237 309.821 47.1998 308.338 49.1302 307.2C51.9022 305.743 56.5273 305.743 56.5273 305.743C56.5273 305.743 54.0567 314.182 44.1963 311.565Z" fill="#263238"/>
<path d="M43.8847 301.087C42.5552 299.344 40.8795 297.862 38.9508 296.722C36.1787 295.272 31.5537 295.272 31.5537 295.272C31.5537 295.272 34.017 303.71 43.8847 301.087Z" fill="#263238"/>
<path d="M44.1953 301.087C45.5249 299.344 47.2005 297.862 49.1292 296.722C51.9013 295.272 56.5557 295.272 56.5557 295.272C56.5557 295.272 54.0557 303.71 44.1953 301.087Z" fill="#263238"/>
<path d="M43.8847 290.619C42.5552 288.876 40.8795 287.393 38.9508 286.254C36.1787 284.803 31.5537 284.803 31.5537 284.803C31.5537 284.803 34.017 293.235 43.8847 290.619Z" fill="#263238"/>
<path d="M44.1953 290.619C45.5249 288.876 47.2005 287.393 49.1292 286.254C51.9013 284.803 56.5263 284.803 56.5263 284.803C56.5263 284.803 54.0557 293.235 44.1953 290.619Z" fill="#263238"/>
<path d="M44.1952 286.834C44.1952 286.834 41.7246 283.705 41.5996 280.707C41.4746 277.709 43.5629 273.823 43.5629 273.823C43.5629 273.823 51.1218 279.707 44.1952 286.834Z" fill="#263238"/>
<path d="M70.688 325.654V308.056C70.688 307.977 70.6547 307.901 70.5954 307.845C70.5361 307.789 70.4557 307.757 70.3718 307.757C70.288 307.757 70.2076 307.789 70.1483 307.845C70.089 307.901 70.0557 307.977 70.0557 308.056V325.654H70.688Z" fill="#263238"/>
<path d="M70.0634 322.31C68.7317 320.575 67.0562 319.1 65.1295 317.966C62.3575 316.516 57.7324 316.516 57.7324 316.516C57.7324 316.516 60.2324 324.905 70.0634 322.31Z" fill="#263238"/>
<path d="M70.3716 322.311C71.7033 320.576 73.3788 319.1 75.3054 317.967C78.0775 316.517 82.7026 316.517 82.7026 316.517C82.7026 316.517 80.2393 324.906 70.3716 322.311Z" fill="#263238"/>
<path d="M70.0619 311.839C68.7324 310.097 67.0567 308.614 65.1281 307.474C62.356 306.017 57.731 306.017 57.731 306.017C57.731 306.017 60.231 314.456 70.0619 311.839Z" fill="#263238"/>
<path d="M70.3716 311.839C71.7011 310.097 73.3768 308.614 75.3054 307.474C78.0775 306.017 82.7026 306.017 82.7026 306.017C82.7026 306.017 80.2393 314.456 70.3716 311.839Z" fill="#263238"/>
<path d="M70.368 308.057C70.368 308.057 67.8974 304.927 67.7797 301.929C67.6621 298.931 69.7356 295.066 69.7356 295.066C69.7356 295.066 77.2945 300.93 70.368 308.057Z" fill="#263238"/>
<path d="M270.476 325.669V309.389C270.476 309.315 270.445 309.245 270.39 309.193C270.335 309.141 270.26 309.111 270.182 309.111C270.104 309.111 270.029 309.141 269.974 309.193C269.919 309.245 269.888 309.315 269.888 309.389V325.669H270.476Z" fill="#263238"/>
<path d="M269.896 322.575C268.668 320.963 267.12 319.591 265.337 318.536C262.771 317.19 258.492 317.19 258.492 317.19C258.492 317.19 260.771 324.997 269.896 322.575Z" fill="#263238"/>
<path d="M270.183 322.575C271.412 320.961 272.963 319.589 274.749 318.536C277.315 317.19 281.587 317.19 281.587 317.19C281.587 317.19 279.308 324.997 270.183 322.575Z" fill="#263238"/>
<path d="M269.896 312.886C268.668 311.273 267.12 309.902 265.337 308.847C262.771 307.5 258.492 307.5 258.492 307.5C258.492 307.5 260.771 315.307 269.896 312.886Z" fill="#263238"/>
<path d="M270.182 312.884C271.411 311.27 272.962 309.898 274.748 308.845C277.314 307.499 281.586 307.499 281.586 307.499C281.586 307.499 279.307 315.306 270.182 312.884Z" fill="#263238"/>
<path d="M270.18 309.387C270.18 309.387 267.9 306.486 267.783 303.717C267.665 300.948 269.599 297.347 269.599 297.347C269.599 297.347 276.584 302.787 270.18 309.387Z" fill="#263238"/>
<path d="M320.138 325.668V309.388C320.138 309.314 320.107 309.244 320.052 309.192C319.997 309.14 319.922 309.11 319.844 309.11C319.766 309.11 319.691 309.14 319.636 309.192C319.581 309.244 319.55 309.314 319.55 309.388V325.668H320.138Z" fill="#263238"/>
<path d="M319.555 322.575C318.327 320.963 316.778 319.591 314.996 318.536C312.43 317.19 308.15 317.19 308.15 317.19C308.15 317.19 310.43 324.997 319.555 322.575Z" fill="#263238"/>
<path d="M319.844 322.574C321.076 320.962 322.626 319.591 324.41 318.535C326.976 317.189 331.256 317.189 331.256 317.189C331.256 317.189 328.969 324.996 319.844 322.574Z" fill="#263238"/>
<path d="M319.555 312.884C318.327 311.272 316.778 309.9 314.996 308.845C312.43 307.499 308.15 307.499 308.15 307.499C308.15 307.499 310.43 315.306 319.555 312.884Z" fill="#263238"/>
<path d="M319.846 312.886C321.078 311.274 322.628 309.902 324.412 308.847C326.978 307.5 331.258 307.5 331.258 307.5C331.258 307.5 328.971 315.307 319.846 312.886Z" fill="#263238"/>
<path d="M319.845 309.387C319.845 309.387 317.565 306.486 317.448 303.717C317.33 300.948 319.264 297.347 319.264 297.347C319.264 297.347 326.249 302.787 319.845 309.387Z" fill="#263238"/>
<path d="M350.118 325.599H355.088" stroke="#263238" stroke-width="0.8989" stroke-linecap="round" stroke-linejoin="round"/>
<path d="M87.3594 325.599H343.332" stroke="#263238" stroke-width="0.8989" stroke-linecap="round" stroke-linejoin="round"/>
<path d="M30.084 325.599H80.5697" stroke="#263238" stroke-width="0.8989" stroke-linecap="round" stroke-linejoin="round"/>
</svg>
