<svg width="22" height="26" viewBox="0 0 22 26" fill="none" xmlns="http://www.w3.org/2000/svg">
<path d="M7.16723 11.3438C7.16723 12.3252 7.55709 13.2664 8.25104 13.9604C8.94499 14.6543 9.88618 15.0442 10.8676 15.0442C11.849 15.0442 12.7902 14.6543 13.4841 13.9604C14.1781 13.2664 14.5679 12.3252 14.5679 11.3438C14.5679 10.3624 14.1781 9.42125 13.4841 8.7273C12.7902 8.03335 11.849 7.6435 10.8676 7.6435C9.88618 7.6435 8.94499 8.03335 8.25104 8.7273C7.55709 9.42125 7.16723 10.3624 7.16723 11.3438Z" stroke="#0D95F6" stroke-width="1.9" stroke-linecap="round" stroke-linejoin="round"/>
<path d="M17.8452 18.3214L12.6117 23.5549C12.1491 24.017 11.522 24.2766 10.8682 24.2766C10.2144 24.2766 9.58728 24.017 9.12472 23.5549L3.88997 18.3214C2.51002 16.9414 1.57027 15.1831 1.18957 13.269C0.808869 11.3549 1.00431 9.3709 1.75118 7.56786C2.49805 5.76483 3.7628 4.22375 5.3855 3.13951C7.00821 2.05527 8.91598 1.47656 10.8676 1.47656C12.8192 1.47656 14.727 2.05527 16.3497 3.13951C17.9724 4.22375 19.2371 5.76483 19.984 7.56786C20.7309 9.3709 20.9263 11.3549 20.5456 13.269C20.1649 15.1831 19.2251 16.9414 17.8452 18.3214Z" stroke="#0D95F6" stroke-width="1.9" stroke-linecap="round" stroke-linejoin="round"/>
</svg>
