<svg width="24" height="24" viewBox="0 0 24 24" fill="none" xmlns="http://www.w3.org/2000/svg">
<path d="M8.25 9.00195C8.25 8.80304 8.32902 8.61228 8.46967 8.47162C8.61032 8.33097 8.80109 8.25195 9 8.25195H15C15.1989 8.25195 15.3897 8.33097 15.5303 8.47162C15.671 8.61228 15.75 8.80304 15.75 9.00195C15.75 9.20087 15.671 9.39163 15.5303 9.53228C15.3897 9.67294 15.1989 9.75195 15 9.75195H9C8.80109 9.75195 8.61032 9.67294 8.46967 9.53228C8.32902 9.39163 8.25 9.20087 8.25 9.00195ZM9 12.752H15C15.1989 12.752 15.3897 12.6729 15.5303 12.5323C15.671 12.3916 15.75 12.2009 15.75 12.002C15.75 11.803 15.671 11.6123 15.5303 11.4716C15.3897 11.331 15.1989 11.252 15 11.252H9C8.80109 11.252 8.61032 11.331 8.46967 11.4716C8.32902 11.6123 8.25 11.803 8.25 12.002C8.25 12.2009 8.32902 12.3916 8.46967 12.5323C8.61032 12.6729 8.80109 12.752 9 12.752ZM12 14.252H9C8.80109 14.252 8.61032 14.331 8.46967 14.4716C8.32902 14.6123 8.25 14.803 8.25 15.002C8.25 15.2009 8.32902 15.3916 8.46967 15.5323C8.61032 15.6729 8.80109 15.752 9 15.752H12C12.1989 15.752 12.3897 15.6729 12.5303 15.5323C12.671 15.3916 12.75 15.2009 12.75 15.002C12.75 14.803 12.671 14.6123 12.5303 14.4716C12.3897 14.331 12.1989 14.252 12 14.252ZM21 4.50195V14.6916C21.0006 14.8887 20.9621 15.0839 20.8866 15.2659C20.8111 15.448 20.7002 15.6132 20.5603 15.752L15.75 20.5623C15.6112 20.7022 15.446 20.8131 15.264 20.8886C15.082 20.964 14.8867 21.0026 14.6897 21.002H4.5C4.10218 21.002 3.72064 20.8439 3.43934 20.5626C3.15804 20.2813 3 19.8998 3 19.502V4.50195C3 4.10413 3.15804 3.7226 3.43934 3.44129C3.72064 3.15999 4.10218 3.00195 4.5 3.00195H19.5C19.8978 3.00195 20.2794 3.15999 20.5607 3.44129C20.842 3.7226 21 4.10413 21 4.50195ZM4.5 19.502H14.25V15.002C14.25 14.803 14.329 14.6123 14.4697 14.4716C14.6103 14.331 14.8011 14.252 15 14.252H19.5V4.50195H4.5V19.502ZM15.75 15.752V18.4426L18.4397 15.752H15.75Z" fill="#434A50" fill-opacity="0.54"/>
</svg>
