<svg width="18" height="18" viewBox="0 0 18 18" fill="none" xmlns="http://www.w3.org/2000/svg">
<path d="M11.8388 11.8387H13.7312M8.05397 9.00005H13.7312M9.94637 6.16145H13.7312M0.484375 2.37665C0.484375 1.87476 0.683752 1.39342 1.03865 1.03852C1.39354 0.68363 1.87488 0.484253 2.37677 0.484253H15.6236C16.1255 0.484253 16.6068 0.68363 16.9617 1.03852C17.3166 1.39342 17.516 1.87476 17.516 2.37665V15.6235C17.516 16.1253 17.3166 16.6067 16.9617 16.9616C16.6068 17.3165 16.1255 17.5159 15.6236 17.5159H2.37677C1.87488 17.5159 1.39354 17.3165 1.03865 16.9616C0.683752 16.6067 0.484375 16.1253 0.484375 15.6235V2.37665Z" stroke="#D91B5C" stroke-width="0.9462" stroke-linecap="round" stroke-linejoin="round"/>
</svg>
