<svg width="28" height="28" viewBox="0 0 28 28" fill="none" xmlns="http://www.w3.org/2000/svg">
<rect x="0.65625" y="0.65625" width="26.6875" height="26.6875" rx="13.3438" stroke="black" stroke-width="1.3125"/>
<path d="M7.60612 7.86275H11.0864L12.208 10.6672L10.4059 11.8686C10.2998 11.9394 10.2127 12.0353 10.1526 12.1478C10.0924 12.2603 10.0609 12.3859 10.0609 12.5135C10.0633 12.5864 10.0609 12.5143 10.0609 12.5143V12.5306C10.0613 12.5652 10.0629 12.5999 10.0656 12.6344C10.0697 12.6985 10.0788 12.7838 10.0927 12.8902C10.123 13.0995 10.1811 13.3878 10.2943 13.7274C10.5221 14.4095 10.9686 15.2923 11.8383 16.162C12.708 17.0317 13.5909 17.4782 14.2722 17.7061C14.6125 17.8192 14.9001 17.8766 15.1109 17.9076C15.2298 17.9249 15.3496 17.9352 15.4698 17.9386L15.4799 17.9394H15.4861C15.4861 17.9394 15.5729 17.9347 15.4868 17.9394C15.6307 17.9393 15.7718 17.8992 15.8942 17.8235C16.0166 17.7478 16.1155 17.6395 16.1798 17.5107L16.6991 16.4721L20.1376 17.0457V20.3942C18.5013 20.6306 14.0815 20.8639 10.609 17.3914C7.1364 13.9188 7.36894 9.49827 7.60612 7.86275ZM11.6678 12.8902L13.0684 11.957C13.3643 11.7596 13.5834 11.4665 13.6888 11.1268C13.7942 10.7871 13.7796 10.4215 13.6475 10.0912L12.5258 7.28683C12.4107 6.99919 12.2121 6.75263 11.9555 6.57896C11.699 6.40529 11.3963 6.31248 11.0864 6.3125H7.56582C6.86123 6.3125 6.1985 6.8016 6.083 7.56588C5.81946 9.30371 5.46213 14.4366 9.51293 18.4874C13.5637 22.5382 18.6966 22.1801 20.4345 21.9173C21.1987 21.8011 21.6878 21.1391 21.6878 20.4345V17.0457C21.6879 16.6787 21.5577 16.3236 21.3206 16.0436C21.0834 15.7635 20.7546 15.5767 20.3926 15.5163L16.9541 14.9435C16.6271 14.8889 16.2912 14.9406 15.9957 15.091C15.7002 15.2414 15.4607 15.4826 15.3124 15.7791L15.0442 16.3163C14.9494 16.2927 14.8556 16.2655 14.7629 16.2349C14.2823 16.0752 13.6149 15.7466 12.9343 15.066C12.2538 14.3854 11.9251 13.7181 11.7654 13.2367C11.7278 13.1228 11.6955 13.0071 11.6686 12.8902H11.6678Z" fill="black"/>
</svg>
